<svg width="84" height="56" viewBox="0 0 84 56" fill="none" xmlns="http://www.w3.org/2000/svg">
<path fill-rule="evenodd" clip-rule="evenodd" d="M0.472412 29.0095L6.52899 24.9806V14.8864L0.472412 18.9152V29.0095Z" fill="#0093DD"/>
<path fill-rule="evenodd" clip-rule="evenodd" d="M14.6044 41.1138L8.54785 37.0849V31.0284L14.6044 35.0661V41.1138Z" fill="#54CC2C"/>
<path fill-rule="evenodd" clip-rule="evenodd" d="M30.7555 31.1263L24.699 27.0886V20.9339L30.7555 25.2293V31.1263Z" fill="#EB891A"/>
<path fill-rule="evenodd" clip-rule="evenodd" d="M14.6044 33.2028L8.54785 29.0095V14.8775L14.6044 18.9292V33.2028Z" fill="#0093DD"/>
<path fill-rule="evenodd" clip-rule="evenodd" d="M16.6235 41.1224L22.6801 36.9698V20.9339L16.6235 24.9716V41.1224Z" fill="#EB891A"/>
<path d="M42.3718 27H40.8012L43.6607 18.8777H45.4771L48.3405 27H46.77L44.6006 20.5434H44.5372L42.3718 27ZM42.4233 23.8153H46.7065V24.9972H42.4233V23.8153ZM50.7825 18.8777V27H49.3469V18.8777H50.7825ZM53.6945 18.8777V27H52.2589V18.8777H53.6945ZM59.6484 21.1106C59.6114 20.7642 59.4554 20.4945 59.1804 20.3015C58.9081 20.1085 58.5538 20.012 58.1176 20.012C57.8109 20.012 57.5478 20.0583 57.3283 20.1508C57.1089 20.2433 56.941 20.3689 56.8247 20.5276C56.7083 20.6862 56.6488 20.8673 56.6462 21.0709C56.6462 21.2401 56.6845 21.3869 56.7612 21.5111C56.8405 21.6354 56.9476 21.7412 57.0825 21.8284C57.2173 21.913 57.3667 21.9844 57.5306 22.0426C57.6945 22.1007 57.8598 22.1496 58.0263 22.1893L58.7878 22.3797C59.0945 22.4511 59.3893 22.5476 59.6722 22.6692C59.9578 22.7908 60.2129 22.9442 60.4376 23.1292C60.665 23.3143 60.8448 23.5377 60.977 23.7995C61.1092 24.0612 61.1753 24.3679 61.1753 24.7196C61.1753 25.1955 61.0537 25.6146 60.8104 25.9768C60.5672 26.3364 60.2156 26.6179 59.7555 26.8215C59.2981 27.0225 58.7442 27.1229 58.0938 27.1229C57.4619 27.1229 56.9132 27.0251 56.4479 26.8295C55.9852 26.6338 55.623 26.3483 55.3612 25.9728C55.1021 25.5974 54.962 25.14 54.9408 24.6006H56.3884C56.4096 24.8835 56.4968 25.1188 56.6502 25.3065C56.8035 25.4943 57.0031 25.6344 57.249 25.7269C57.4976 25.8195 57.7752 25.8657 58.0819 25.8657C58.4018 25.8657 58.6821 25.8181 58.9227 25.723C59.1659 25.6251 59.3563 25.4903 59.4938 25.3184C59.6312 25.1439 59.7013 24.9404 59.7039 24.7077C59.7013 24.4962 59.6392 24.3217 59.5175 24.1842C59.3959 24.044 59.2254 23.9277 59.0059 23.8352C58.7891 23.74 58.5353 23.6554 58.2445 23.5814L57.3204 23.3434C56.6515 23.1715 56.1227 22.9111 55.734 22.5621C55.348 22.2105 55.155 21.7438 55.155 21.1621C55.155 20.6836 55.2846 20.2645 55.5437 19.9049C55.8054 19.5453 56.161 19.2664 56.6105 19.0681C57.06 18.8672 57.5689 18.7667 58.1374 18.7667C58.7138 18.7667 59.2188 18.8672 59.6524 19.0681C60.0886 19.2664 60.431 19.5427 60.6796 19.897C60.9281 20.2486 61.0563 20.6532 61.0643 21.1106H59.6484ZM65.4655 20.9083V22.0188H61.9635V20.9083H65.4655ZM62.8281 19.4488H64.2638V25.1677C64.2638 25.3607 64.2929 25.5088 64.351 25.6119C64.4119 25.7124 64.4912 25.7811 64.589 25.8181C64.6868 25.8552 64.7952 25.8737 64.9142 25.8737C65.0041 25.8737 65.0861 25.8671 65.1601 25.8538C65.2368 25.8406 65.2949 25.8287 65.3346 25.8181L65.5765 26.9405C65.4998 26.967 65.3901 26.996 65.2474 27.0278C65.1072 27.0595 64.9354 27.078 64.7318 27.0833C64.3722 27.0939 64.0483 27.0397 63.7601 26.9207C63.4719 26.7991 63.2432 26.6113 63.074 26.3575C62.9074 26.1037 62.8255 25.7864 62.8281 25.4057V19.4488ZM68.4191 27.1229C68.0331 27.1229 67.6854 27.0542 67.3761 26.9167C67.0694 26.7766 66.8261 26.5704 66.6463 26.298C66.4692 26.0257 66.3806 25.6899 66.3806 25.2907C66.3806 24.947 66.4441 24.6627 66.571 24.438C66.6979 24.2133 66.8711 24.0335 67.0905 23.8986C67.31 23.7638 67.5572 23.662 67.8322 23.5932C68.1098 23.5219 68.3966 23.4703 68.6928 23.4386C69.0497 23.4016 69.3392 23.3685 69.5613 23.3394C69.7834 23.3077 69.9447 23.2601 70.0452 23.1967C70.1483 23.1306 70.1998 23.0288 70.1998 22.8913V22.8675C70.1998 22.5687 70.1113 22.3374 69.9341 22.1734C69.757 22.0095 69.5018 21.9276 69.1687 21.9276C68.817 21.9276 68.5381 22.0042 68.3319 22.1576C68.1283 22.3109 67.9908 22.492 67.9194 22.7009L66.5789 22.5105C66.6847 22.1404 66.8592 21.831 67.1024 21.5825C67.3457 21.3313 67.6431 21.1436 67.9948 21.0193C68.3464 20.8924 68.7351 20.829 69.1608 20.829C69.4542 20.829 69.7464 20.8634 70.0372 20.9321C70.3281 21.0008 70.5938 21.1145 70.8344 21.2732C71.075 21.4292 71.268 21.642 71.4134 21.9117C71.5615 22.1814 71.6355 22.5185 71.6355 22.923V27H70.2554V26.1632H70.2078C70.1205 26.3324 69.9976 26.491 69.8389 26.6391C69.6829 26.7845 69.486 26.9022 69.248 26.9921C69.0127 27.0793 68.7364 27.1229 68.4191 27.1229ZM68.7919 26.068C69.0801 26.068 69.33 26.0112 69.5415 25.8975C69.753 25.7811 69.9156 25.6278 70.0293 25.4374C70.1456 25.2471 70.2038 25.0395 70.2038 24.8148V24.0969C70.1588 24.1339 70.0822 24.1683 69.9738 24.2C69.868 24.2318 69.749 24.2595 69.6168 24.2833C69.4846 24.3071 69.3538 24.3283 69.2242 24.3468C69.0947 24.3653 68.9823 24.3812 68.8871 24.3944C68.6729 24.4235 68.4813 24.471 68.312 24.5371C68.1428 24.6032 68.0093 24.6958 67.9115 24.8148C67.8137 24.9311 67.7647 25.0818 67.7647 25.2669C67.7647 25.5313 67.8612 25.7309 68.0543 25.8657C68.2473 26.0006 68.4932 26.068 68.7919 26.068ZM76.121 20.9083V22.0188H72.6191V20.9083H76.121ZM73.4836 19.4488H74.9193V25.1677C74.9193 25.3607 74.9484 25.5088 75.0066 25.6119C75.0674 25.7124 75.1467 25.7811 75.2445 25.8181C75.3423 25.8552 75.4507 25.8737 75.5697 25.8737C75.6596 25.8737 75.7416 25.8671 75.8156 25.8538C75.8923 25.8406 75.9505 25.8287 75.9901 25.8181L76.232 26.9405C76.1554 26.967 76.0456 26.996 75.9029 27.0278C75.7627 27.0595 75.5909 27.078 75.3873 27.0833C75.0277 27.0939 74.7038 27.0397 74.4156 26.9207C74.1274 26.7991 73.8987 26.6113 73.7295 26.3575C73.563 26.1037 73.481 25.7864 73.4836 25.4057V19.4488ZM82.0491 22.5185L80.7403 22.6613C80.7033 22.5291 80.6385 22.4048 80.546 22.2885C80.4561 22.1721 80.3345 22.0783 80.1811 22.0069C80.0278 21.9355 79.8401 21.8998 79.618 21.8998C79.3192 21.8998 79.068 21.9646 78.8644 22.0941C78.6635 22.2237 78.5643 22.3916 78.567 22.5978C78.5643 22.7749 78.6291 22.919 78.7613 23.0301C78.8962 23.1411 79.1183 23.2323 79.4276 23.3037L80.4667 23.5258C81.0431 23.6501 81.4714 23.8471 81.7516 24.1168C82.0346 24.3864 82.1773 24.7394 82.18 25.1757C82.1773 25.559 82.065 25.8975 81.8429 26.1909C81.6234 26.4818 81.318 26.7092 80.9267 26.8731C80.5354 27.037 80.0859 27.119 79.5783 27.119C78.8327 27.119 78.2325 26.963 77.7778 26.651C77.323 26.3364 77.052 25.8988 76.9647 25.3383L78.3647 25.2034C78.4282 25.4784 78.563 25.6859 78.7693 25.8261C78.9755 25.9662 79.2438 26.0363 79.5743 26.0363C79.9154 26.0363 80.1891 25.9662 80.3953 25.8261C80.6042 25.6859 80.7086 25.5128 80.7086 25.3065C80.7086 25.132 80.6412 24.9879 80.5063 24.8743C80.3741 24.7606 80.1679 24.6733 79.8877 24.6125L78.8486 24.3944C78.2643 24.2727 77.832 24.0678 77.5517 23.7796C77.2714 23.4888 77.1326 23.1213 77.1353 22.6771C77.1326 22.3017 77.2344 21.9765 77.4407 21.7015C77.6495 21.4239 77.939 21.2097 78.3092 21.059C78.682 20.9057 79.1116 20.829 79.5981 20.829C80.312 20.829 80.8739 20.981 81.2837 21.2851C81.6961 21.5891 81.9513 22.0003 82.0491 22.5185ZM46.0165 30.9083C45.9715 30.4562 45.7719 30.0966 45.4176 29.8296C45.0633 29.5625 44.6178 29.429 44.0811 29.429C43.703 29.429 43.3699 29.4938 43.0817 29.6233C42.7961 29.7529 42.5714 29.9327 42.4074 30.1627C42.2462 30.3901 42.1655 30.6492 42.1655 30.94C42.1655 31.1542 42.2118 31.3419 42.3043 31.5032C42.3969 31.6645 42.5211 31.8033 42.6771 31.9196C42.8358 32.0333 43.0103 32.1311 43.2006 32.2131C43.3936 32.2951 43.588 32.3638 43.7836 32.4193L44.6403 32.6652C44.8994 32.7366 45.1585 32.8278 45.4176 32.9389C45.6767 33.0499 45.9133 33.19 46.1275 33.3593C46.3443 33.5258 46.5175 33.7307 46.647 33.974C46.7792 34.2146 46.8453 34.5041 46.8453 34.8425C46.8453 35.2761 46.733 35.6661 46.5082 36.0125C46.2835 36.3588 45.9609 36.6338 45.5405 36.8374C45.1202 37.0383 44.6165 37.1388 44.0295 37.1388C43.4769 37.1388 42.9971 37.0476 42.5899 36.8652C42.1827 36.6801 41.8628 36.4249 41.6301 36.0997C41.3975 35.7745 41.2666 35.3978 41.2375 34.9694H41.999C42.0254 35.2894 42.1312 35.5604 42.3162 35.7825C42.5013 36.0045 42.7419 36.1738 43.038 36.2901C43.3342 36.4038 43.6647 36.4606 44.0295 36.4606C44.434 36.4606 44.7936 36.3932 45.1083 36.2584C45.4255 36.1209 45.6741 35.9305 45.8539 35.6873C46.0363 35.4414 46.1275 35.1558 46.1275 34.8306C46.1275 34.5557 46.0561 34.3256 45.9133 34.1406C45.7706 33.9528 45.571 33.7955 45.3145 33.6686C45.0607 33.5417 44.7659 33.4293 44.4301 33.3315L43.4584 33.0459C42.8212 32.8556 42.3268 32.5925 41.9752 32.2567C41.6235 31.9209 41.4477 31.4926 41.4477 30.9718C41.4477 30.5355 41.564 30.1521 41.7967 29.8216C42.032 29.4885 42.3493 29.2294 42.7485 29.0443C43.1504 28.8566 43.6012 28.7627 44.1009 28.7627C44.6059 28.7627 45.0527 28.8553 45.4414 29.0403C45.8301 29.2254 46.1381 29.4806 46.3655 29.8058C46.5955 30.1283 46.7184 30.4958 46.7343 30.9083H46.0165ZM50.9461 37.1269C50.3777 37.1269 49.8859 36.9947 49.4708 36.7303C49.0557 36.4633 48.7345 36.0944 48.5071 35.6238C48.2823 35.1505 48.17 34.6059 48.17 33.9898C48.17 33.3764 48.2823 32.8318 48.5071 32.3559C48.7345 31.8773 49.0478 31.5032 49.447 31.2335C49.8489 30.9612 50.3129 30.825 50.8391 30.825C51.1696 30.825 51.4882 30.8858 51.7949 31.0074C52.1016 31.1264 52.3765 31.3102 52.6198 31.5587C52.8657 31.8046 53.06 32.1153 53.2028 32.4907C53.3455 32.8635 53.4169 33.3051 53.4169 33.8153V34.1643H48.6578V33.5417H52.6951C52.6951 33.1504 52.6158 32.7987 52.4572 32.4867C52.3012 32.1721 52.083 31.9236 51.8028 31.7412C51.5252 31.5587 51.2039 31.4675 50.8391 31.4675C50.453 31.4675 50.1133 31.5706 49.8198 31.7768C49.5263 31.9831 49.2963 32.2554 49.1297 32.5938C48.9658 32.9323 48.8825 33.3024 48.8799 33.7043V34.0771C48.8799 34.5609 48.9632 34.984 49.1297 35.3462C49.2989 35.7058 49.5382 35.9847 49.8476 36.183C50.1569 36.3813 50.5231 36.4805 50.9461 36.4805C51.2343 36.4805 51.4868 36.4355 51.7036 36.3456C51.9231 36.2557 52.1068 36.1354 52.2549 35.9847C52.4056 35.8314 52.5193 35.6635 52.596 35.481L53.2662 35.6992C53.1737 35.9556 53.0217 36.1923 52.8101 36.4091C52.6013 36.6259 52.3395 36.8004 52.0249 36.9326C51.7129 37.0621 51.3533 37.1269 50.9461 37.1269ZM56.674 37.1388C56.3064 37.1388 55.9707 37.0674 55.6666 36.9246C55.3626 36.7792 55.1206 36.5704 54.9408 36.298C54.7611 36.0231 54.6712 35.6899 54.6712 35.2986C54.6712 34.9972 54.728 34.7434 54.8417 34.5371C54.9554 34.3309 55.1167 34.1617 55.3255 34.0295C55.5344 33.8973 55.7816 33.7929 56.0672 33.7162C56.3527 33.6395 56.6673 33.58 57.0111 33.5377C57.3521 33.4954 57.6403 33.4584 57.8756 33.4267C58.1136 33.395 58.2947 33.3447 58.419 33.276C58.5432 33.2072 58.6054 33.0962 58.6054 32.9428V32.8001C58.6054 32.385 58.4811 32.0584 58.2326 31.8205C57.9867 31.5799 57.6324 31.4596 57.1697 31.4596C56.7308 31.4596 56.3725 31.5561 56.0949 31.7491C55.82 31.9421 55.6269 32.1695 55.5159 32.4312L54.8457 32.1893C54.9831 31.8562 55.1735 31.5904 55.4168 31.3921C55.66 31.1912 55.9323 31.0471 56.2337 30.9599C56.5352 30.87 56.8405 30.825 57.1499 30.825C57.3825 30.825 57.6245 30.8554 57.8756 30.9162C58.1295 30.977 58.3648 31.0828 58.5816 31.2335C58.7984 31.3816 58.9742 31.5891 59.1091 31.8562C59.2439 32.1206 59.3113 32.4563 59.3113 32.8635V37H58.6054V36.0363H58.5618C58.4771 36.2161 58.3516 36.3906 58.185 36.5598C58.0184 36.729 57.8095 36.8678 57.5584 36.9762C57.3072 37.0846 57.0124 37.1388 56.674 37.1388ZM56.7691 36.4924C57.1446 36.4924 57.4698 36.4091 57.7448 36.2425C58.0197 36.0759 58.2313 35.8552 58.3793 35.5802C58.53 35.3026 58.6054 34.9972 58.6054 34.6641V33.7836C58.5525 33.8339 58.4639 33.8788 58.3397 33.9185C58.218 33.9581 58.0766 33.9938 57.9153 34.0255C57.7567 34.0546 57.598 34.0797 57.4394 34.1009C57.2808 34.122 57.138 34.1406 57.0111 34.1564C56.6673 34.1987 56.3739 34.2648 56.1306 34.3547C55.8874 34.4446 55.701 34.5689 55.5714 34.7275C55.4419 34.8835 55.3771 35.0844 55.3771 35.3303C55.3771 35.7005 55.5093 35.9874 55.7737 36.1909C56.0381 36.3919 56.3699 36.4924 56.7691 36.4924ZM61.1892 37V30.9083H61.8753V31.8443H61.9269C62.0485 31.5376 62.26 31.2904 62.5614 31.1026C62.8655 30.9123 63.2092 30.8171 63.5926 30.8171C63.6507 30.8171 63.7155 30.8184 63.7869 30.8211C63.8583 30.8237 63.9178 30.8263 63.9654 30.829V31.5468C63.9336 31.5415 63.8781 31.5336 63.7988 31.523C63.7195 31.5124 63.6335 31.5072 63.541 31.5072C63.2237 31.5072 62.9408 31.5746 62.6923 31.7094C62.4464 31.8416 62.2521 32.0254 62.1093 32.2607C61.9665 32.496 61.8951 32.7644 61.8951 33.0658V37H61.1892ZM67.3642 37.1269C66.8195 37.1269 66.3449 36.9907 65.9404 36.7184C65.5385 36.4461 65.2265 36.0733 65.0044 35.6C64.7823 35.1267 64.6713 34.5874 64.6713 33.9819C64.6713 33.3712 64.7837 32.8278 65.0084 32.3519C65.2358 31.876 65.5504 31.5032 65.9523 31.2335C66.3542 30.9612 66.8208 30.825 67.3523 30.825C67.7594 30.825 68.1283 30.9043 68.4588 31.063C68.7893 31.219 69.0616 31.4397 69.2758 31.7253C69.4926 32.0082 69.6287 32.3387 69.6843 32.7168H68.9704C68.8964 32.3731 68.7179 32.0796 68.435 31.8363C68.1547 31.5904 67.7978 31.4675 67.3642 31.4675C66.9755 31.4675 66.6318 31.5733 66.333 31.7848C66.0343 31.9936 65.8003 32.2858 65.6311 32.6613C65.4645 33.0341 65.3812 33.4663 65.3812 33.9581C65.3812 34.4525 65.4632 34.8901 65.6271 35.2708C65.791 35.6489 66.021 35.9451 66.3172 36.1592C66.6159 36.3734 66.9649 36.4805 67.3642 36.4805C67.6339 36.4805 67.8797 36.4302 68.1018 36.3298C68.3266 36.2266 68.5143 36.0812 68.665 35.8935C68.8184 35.7058 68.9215 35.4824 68.9744 35.2233H69.6882C69.6353 35.5908 69.5045 35.9186 69.2956 36.2068C69.0894 36.4924 68.821 36.7171 68.4905 36.881C68.1627 37.0449 67.7872 37.1269 67.3642 37.1269ZM71.9072 33.1927V37H71.2012V28.8777H71.9072V31.8641H71.9706C72.1134 31.5495 72.3342 31.2983 72.6329 31.1106C72.9344 30.9228 73.3151 30.829 73.7751 30.829C74.1876 30.829 74.5498 30.9136 74.8618 31.0828C75.1738 31.252 75.417 31.5019 75.5915 31.8324C75.766 32.1629 75.8533 32.57 75.8533 33.0539V37H75.1434V33.0975C75.1434 32.5952 75.0033 32.1999 74.723 31.9117C74.4454 31.6209 74.0699 31.4754 73.5967 31.4754C73.2715 31.4754 72.9819 31.5442 72.7281 31.6817C72.4743 31.8191 72.2734 32.0174 72.1253 32.2766C71.9799 32.533 71.9072 32.8384 71.9072 33.1927Z" fill="white"/>
</svg>
