<svg width="37" height="36" viewBox="0 0 37 36" fill="none" xmlns="http://www.w3.org/2000/svg">
<path d="M33.5 27.0825V30.7695C33.5 33.657 26.5175 36 18.5 36C10.484 36 3.5 33.657 3.5 30.7695V27.0825C7.127 29.6895 14.0075 30.4665 18.5 30.4665C23.009 30.4665 29.882 29.682 33.5 27.0825ZM18.5 0C10.484 0 3.5 2.343 3.5 5.232C3.5 8.121 10.484 10.4625 18.5 10.4625C26.5175 10.4625 33.5 8.1195 33.5 5.232C33.5 2.343 26.5175 0 18.5 0ZM18.5 13.4625C13.991 13.4625 7.118 12.678 3.5 10.0785V13.7385C3.5 16.6275 10.484 18.969 18.5 18.969C26.5175 18.969 33.5 16.626 33.5 13.7385V10.0785C29.873 12.6855 22.9925 13.4625 18.5 13.4625ZM9.4655 20.9925L8.723 26.202C9.2825 26.37 9.881 26.5245 10.511 26.664L11.2685 21.3615C10.6475 21.252 10.0445 21.129 9.4655 20.9925ZM22.3115 21.8025L21.521 27.3615C22.1645 27.3165 22.7885 27.255 23.3975 27.1815L24.191 21.5985C23.5775 21.6795 22.9505 21.747 22.3115 21.8025ZM25.607 21.3825L24.812 26.9805C25.4705 26.874 26.105 26.751 26.711 26.6115L27.509 20.997C26.8985 21.1425 26.2625 21.27 25.607 21.3825ZM19.052 21.9585L18.2705 27.4665C18.9125 27.4665 19.352 27.4665 20.123 27.4365L20.9105 21.9C20.2985 21.9315 19.6775 21.951 19.052 21.9585ZM31.5815 24.7965C32.801 24.039 33.5 23.166 33.5 22.236V18.5775C33.155 18.8175 32.777 19.047 32.3675 19.2645L31.5815 24.7965ZM6.353 20.0445L5.651 24.9345C6.1565 25.227 6.7385 25.5 7.394 25.7505L8.1245 20.64C7.532 20.469 6.9185 20.2665 6.353 20.0445ZM15.824 21.8835L15.0485 27.327C15.647 27.3765 16.2605 27.4125 16.8845 27.4365L17.666 21.954C17.045 21.9435 16.43 21.9195 15.824 21.8835ZM3.5 18.5775V22.236C3.5 22.8585 3.815 23.4555 4.388 24.0105L5.042 19.4745C4.4705 19.194 3.9575 18.8955 3.5 18.5775ZM12.6275 21.573L11.8625 26.9265C12.449 27.027 13.0535 27.1155 13.679 27.189L14.45 21.7815C13.8305 21.7245 13.2215 21.6555 12.6275 21.573ZM28.9475 20.619L28.148 26.241C28.8545 26.034 29.504 25.8045 30.092 25.5555L30.8885 19.95C30.248 20.205 29.6765 20.4045 28.9475 20.619Z" fill="#5DAB2C"/>
</svg>
